<svg width="24" height="24" viewBox="0 0 24 24" fill="none" xmlns="http://www.w3.org/2000/svg">
<path d="M2.05154 13C1.6651 13 3.5734 11.7756 3.72516 11.6774C4.6229 11.0963 7.64701 8.75554 8.55952 8.20002C10.3117 7.13332 9.15101 7.80814 11 7" stroke="black" stroke-width="2" stroke-linecap="round"/>
<path d="M2 13.4332C2.67559 13.5083 3.53693 13.9825 4.17182 14.2111C5.7794 14.7898 7.56678 15.4931 8.76192 16.7603C9.45914 17.4995 8.95885 16.7251 9.6145 17.5C9.75997 17.6719 11.1145 19 12.1145 19" stroke="black" stroke-width="2" stroke-linecap="round"/>
<path d="M4 13C7.84848 12.7397 7.81535 12.1318 11.6832 12.1318C12.9908 12.1318 13.4027 11.6666 22 12.4841" stroke="black" stroke-width="2" stroke-linecap="round"/>
</svg>
