<svg width="24" height="24" viewBox="0 0 24 24" fill="none" xmlns="http://www.w3.org/2000/svg">
<path d="M7.55873 5.86427C7.41487 5.70244 7.3875 5.29376 7.32219 5.08334C7.2077 4.71442 7.07499 4.35649 6.96551 3.98702C6.7396 3.22456 8.27983 2.67778 8.73765 2.48521C10.1164 1.90524 11.5792 1.64031 13.0478 1.95958C13.5568 2.07022 14.0609 2.20067 14.5722 2.3125C14.7466 2.35067 14.8509 2.34406 14.9927 2.43265C15.2918 2.61958 15.2204 3.503 15.1429 3.78427C15.0745 4.03212 15.0772 4.359 15.0565 4.61778C15.0284 4.96843 14.864 5.31368 14.8049 5.66153C14.7377 6.05729 14.8429 6.41583 14.8575 6.79539C14.8593 6.84082 14.929 7.13495 14.9626 7.14457C15.0836 7.17913 15.2752 7.05061 15.3756 7.0094C15.6587 6.89328 15.9459 6.80554 16.2354 6.70904C17.0971 6.42183 17.9247 6.26976 18.8448 6.26976C19.4705 6.26976 19.5537 6.41286 19.7609 6.94558C19.8838 7.26167 20.0477 7.85769 19.8923 8.19958C19.7534 8.50514 19.7486 8.90342 19.6558 9.22832C19.4692 9.88122 19.2696 10.5263 18.9649 11.1356C18.7809 11.5036 18.6062 11.8677 18.4393 12.2432C18.3673 12.4052 17.1257 12.1024 16.9675 12.0818C16.8728 12.0694 15.6851 11.9207 15.6722 11.9916C15.6138 12.3132 15.6299 12.7739 15.6835 13.0955C15.78 13.6747 16.1421 14.328 16.5621 14.7324C16.8437 15.0037 17.2321 15.1482 17.557 15.3594C17.8737 15.5653 18.0514 15.864 18.3342 16.0953C18.8968 16.5557 18.3894 17.5396 18.1652 18.0665C17.7497 19.0431 17.1121 20.1472 16.1078 20.6308C15.8355 20.7619 15.7164 20.8549 15.4357 20.7171C14.6272 20.3202 13.8834 19.8526 13.153 19.3242C13.0831 19.2737 11.9735 18.4733 11.9553 18.6559C11.8746 19.4621 11.6039 20.231 11.4259 21.025C11.3813 21.2238 11.3833 21.9011 11.2382 22.0462C11.066 22.2183 9.69739 21.1716 9.50357 21.055C8.92938 20.7097 8.33617 20.4437 7.73144 20.1615C7.52906 20.067 7.15269 20.0379 7.05187 19.8161C6.87408 19.4249 7.57577 17.8309 7.46111 17.7736C6.87749 17.4818 5.96556 17.6178 5.3323 17.5183C4.84868 17.4423 4.19809 17.3925 3.84176 17.0152C3.54445 16.7004 3.48347 16.0481 3.51887 15.6485C3.57195 15.0495 3.75786 13.882 4.46501 13.7563C5.0671 13.6492 5.63909 13.4964 6.19584 13.2344C6.42274 13.1276 6.61259 13.1202 6.61259 12.8514C6.61259 12.2395 6.00753 11.5498 5.68147 11.0831C5.47726 10.7908 5.30368 10.4839 5.02818 10.2571C4.54614 9.86008 4.02978 9.54888 3.6728 9.00681C3.50224 8.74781 3.03463 8.21697 3.41374 7.99684C4.18079 7.55146 5.00811 7.22104 5.85042 6.94933C6.05103 6.88462 6.41579 6.62346 6.59757 6.82543C6.67967 6.91665 6.77806 7.02831 6.88291 7.08074" stroke="black" stroke-width="2" stroke-linecap="round"/>
<path d="M10.8704 14.2444C10.2713 13.9748 9.48855 13.9467 9.14705 13.332C8.8453 12.7889 9.04568 11.8179 9.04568 11.2182C9.04568 10.82 9.13401 10.5353 9.38358 10.2233C9.55216 10.0126 10.0998 10.0005 10.3297 9.97173C10.8995 9.90051 11.4455 9.9335 12.0155 9.9905C13.0028 10.0892 13.1006 11.2452 13.1006 12.0442C13.1006 12.282 12.672 12.7654 12.4923 12.8777C12.2663 13.019 12.0018 13.2655 11.8841 13.501" stroke="black" stroke-width="2" stroke-linecap="round"/>
</svg>
